# xmcd
#
# Track frame offsets:
#	150
#	13415
#	27970
#	40990
#	51994
#	69982
#	78530
#	93048
#	110447
#	122847
#	135821
#	146872
#	161858
#	176236
#	188982
#	200869
#	213149
#	225963
#	241373
#	257464
#	274373
# Disc length: 3826 seconds
# Revision: 1
# Processed by: cddbd v1.5.2PL0 Copyright (c) Steve Scherf et al.
#
# Submitted via: libkcddb 0.31
#
DISCID=310ef015
DTITLE=Eddie Rabbitt - "Eddie Rabbitt"/"Rabbitt"
DYEAR=2006
DGENRE=Country
TTITLE0=Love Me To Sleep
TTITLE1=Forgive And Forget
TTITLE2=Long Gone
TTITLE3=Pure Love
TTITLE4=When I Was Young
TTITLE5=Savin' My Love For My Baby
TTITLE6=I Should Have Married You
TTITLE7=Sweet Janine
TTITLE8=You Get To Me
TTITLE9=It Just Ain't Hit Me Yet
TTITLE10=Leavin'
TTITLE11=I'm A Little Bit Lonesome
TTITLE12=I Can't Help Myself
TTITLE13=Stop, Look And Listen
TTITLE14=The Girl On My Mind
TTITLE15=You Make Love Beautiful
TTITLE16=Sure Thing
TTITLE17=Jewelry Store
TTITLE18=We Can't Go On Living Like This
TTITLE19=Is There A Country Song On The Jukebox ?
TTITLE20=She Loves Me Like She Means It
EXTD=
EXTT0=
EXTT1=
EXTT2=
EXTT3=
EXTT4=
EXTT5=
EXTT6=
EXTT7=
EXTT8=
EXTT9=
EXTT10=
EXTT11=
EXTT12=
EXTT13=
EXTT14=
EXTT15=
EXTT16=
EXTT17=
EXTT18=
EXTT19=
EXTT20=
PLAYORDER=
